# xmcd
#
# Track frame offsets: 
#        212
#        12307
#        27500
#        44112
#        61092
#        75405
#        91615
#        106465
#        120005
#        132175
#        151705
#        169037
#        180687
#        194442
#        211215
#
# Disc length: 2968 seconds
#
# Revision: 1
# Processed by: cddbd v1.5.2PL0 Copyright (c) Steve Scherf et al.
# Submitted via: ExactAudioCopy v1.0b4
#
DISCID=b40b960f
DTITLE=Wigbert - Aan alle belgen
DYEAR=1996
DGENRE=Blues Nederlandstalig
TTITLE0=Aan alle belgen
TTITLE1=Het land dat God vergat
TTITLE2=Le diable dans mon corps
TTITLE3=Salt Lake City - Utah
TTITLE4=Daar is het
TTITLE5=Op kwade dagen
TTITLE6=Moeders and dochters
TTITLE7=Naakte man
TTITLE8=Iedereen, behalve ik
TTITLE9=Heimwee
TTITLE10=Boven op de berg
TTITLE11=Zippo blues
TTITLE12=Schroot
TTITLE13=Murphy's wet
TTITLE14=Brabançonne blues
EXTD=
EXTT0=
EXTT1=
EXTT2=
EXTT3=
EXTT4=
EXTT5=
EXTT6=
EXTT7=
EXTT8=
EXTT9=
EXTT10=
EXTT11=
EXTT12=
EXTT13=
EXTT14=
PLAYORDER=
